<?xml version="1.0" encoding="UTF-8"?>
<!DOCTYPE svg PUBLIC "-//W3C//DTD SVG 1.1//EN" "http://www.w3.org/Graphics/SVG/1.1/DTD/svg11.dtd">
<svg xmlns="http://www.w3.org/2000/svg" version="1.1" width="609px" height="410px" style="shape-rendering:geometricPrecision; text-rendering:geometricPrecision; image-rendering:optimizeQuality; fill-rule:evenodd; clip-rule:evenodd" xmlns:xlink="http://www.w3.org/1999/xlink">
<g><path style="opacity:0.202" fill="#30424d" d="M 331.5,83.5 C 328.71,80.4085 325.376,79.7418 321.5,81.5C 321.611,80.8826 321.944,80.3826 322.5,80C 324.833,79.3333 327.167,79.3333 329.5,80C 330.823,80.8159 331.489,81.9826 331.5,83.5 Z"/></g>
<g><path style="opacity:1" fill="#2da2e2" d="M 331.5,83.5 C 331.984,86.7882 330.984,89.4548 328.5,91.5C 327.048,92.3019 325.382,92.8019 323.5,93C 312.298,104.369 300.965,115.535 289.5,126.5C 287.618,127.221 287.285,128.221 288.5,129.5C 290.167,130.5 291.5,131.833 292.5,133.5C 295.434,137.773 298.767,141.773 302.5,145.5C 302.5,177.167 302.5,208.833 302.5,240.5C 300.726,241.881 299.226,241.548 298,239.5C 297.667,208.5 297.333,177.5 297,146.5C 285.965,135.632 275.131,124.632 264.5,113.5C 262.343,112.593 260.01,111.927 257.5,111.5C 257.5,111.167 257.5,110.833 257.5,110.5C 257.448,108.097 257.781,105.764 258.5,103.5C 260.764,102.781 263.097,102.448 265.5,102.5C 266.465,105.493 267.798,108.16 269.5,110.5C 273.833,114.167 277.833,118.167 281.5,122.5C 282.204,124.344 283.537,124.844 285.5,124C 288,121.5 290.5,119 293,116.5C 293.74,115.251 293.573,114.251 292.5,113.5C 291.5,113.167 290.833,112.5 290.5,111.5C 289.5,108.5 287.5,106.5 284.5,105.5C 284.167,103.167 282.833,101.833 280.5,101.5C 278.363,100.058 276.03,98.8911 273.5,98C 270.54,94.3411 270.873,91.1745 274.5,88.5C 276.833,88.5 279.167,88.5 281.5,88.5C 282.458,88.9528 283.292,89.6195 284,90.5C 284.333,92.8333 284.667,95.1667 285,97.5C 289.037,101.369 292.87,105.369 296.5,109.5C 297.251,110.573 298.251,110.74 299.5,110C 302.612,107.561 304.945,104.561 306.5,101C 306.361,99.699 305.695,98.8656 304.5,98.5C 302.833,97.5 301.5,96.1667 300.5,94.5C 299.365,92.7868 297.698,92.1201 295.5,92.5C 293.81,92.1436 292.81,91.1436 292.5,89.5C 292.167,83.8333 294.833,81.1667 300.5,81.5C 301.167,82.8333 302.167,83.8333 303.5,84.5C 304.309,86.2922 304.809,88.2922 305,90.5C 306.376,91.7051 307.542,93.0384 308.5,94.5C 308.722,97.0764 310.055,97.9098 312.5,97C 314.667,94.8333 316.833,92.6667 319,90.5C 320.15,87.5823 320.983,84.5823 321.5,81.5C 325.376,79.7418 328.71,80.4085 331.5,83.5 Z"/></g>
<g><path style="opacity:0.043" fill="#2f4553" d="M 300.5,81.5 C 302.5,81.5 303.5,82.5 303.5,84.5C 302.167,83.8333 301.167,82.8333 300.5,81.5 Z"/></g>
<g><path style="opacity:0.451" fill="#2e4a5a" d="M 300.5,81.5 C 294.833,81.1667 292.167,83.8333 292.5,89.5C 290.853,86.2475 291.52,83.4142 294.5,81C 296.712,80.2109 298.712,80.3775 300.5,81.5 Z"/></g>
<g><path style="opacity:0.122" fill="#2f363a" d="M 331.5,83.5 C 332.622,85.2884 332.789,87.2884 332,89.5C 331.184,90.8228 330.017,91.4894 328.5,91.5C 330.984,89.4548 331.984,86.7882 331.5,83.5 Z"/></g>
<g><path style="opacity:0.776" fill="#2e6b8e" d="M 281.5,88.5 C 279.167,88.5 276.833,88.5 274.5,88.5C 275.531,87.7515 276.698,87.0848 278,86.5C 279.302,87.0848 280.469,87.7515 281.5,88.5 Z"/></g>
<g><path style="opacity:1" fill="#2bacf1" d="M 343.5,88.5 C 344.299,91.4299 344.632,94.4299 344.5,97.5C 342.189,99.0682 339.522,99.9016 336.5,100C 334.63,102.04 332.63,103.873 330.5,105.5C 328.833,106.5 327.5,107.833 326.5,109.5C 326.167,110.5 325.5,111.167 324.5,111.5C 323.5,111.833 322.833,112.5 322.5,113.5C 321.542,113.953 320.708,114.619 320,115.5C 319.5,156.832 319.333,198.165 319.5,239.5C 319.5,240.167 319.167,240.5 318.5,240.5C 317.504,240.586 316.671,240.252 316,239.5C 315.832,206.997 315.332,174.664 314.5,142.5C 314.027,141.094 313.027,140.427 311.5,140.5C 310.833,139.5 310.167,138.5 309.5,137.5C 308.71,136.206 307.71,135.039 306.5,134C 303.588,133.725 300.921,132.891 298.5,131.5C 297.67,124.667 300.67,122 307.5,123.5C 307.927,126.01 308.593,128.343 309.5,130.5C 310.833,131.167 311.833,132.167 312.5,133.5C 312.833,134.5 313.5,135.167 314.5,135.5C 315.226,127.631 315.893,119.631 316.5,111.5C 323.11,106.559 329.11,100.892 334.5,94.5C 334.15,91.5466 335.15,89.2133 337.5,87.5C 339.68,86.2056 341.68,86.5389 343.5,88.5 Z"/></g>
<g><path style="opacity:0.098" fill="#2e3d46" d="M 295.5,92.5 C 297.698,92.1201 299.365,92.7868 300.5,94.5C 298.597,94.2041 296.93,93.5375 295.5,92.5 Z"/></g>
<g><path style="opacity:0.12" fill="#2f373c" d="M 337.5,87.5 C 335.15,89.2133 334.15,91.5466 334.5,94.5C 334.167,94.5 333.833,94.5 333.5,94.5C 332.68,90.7779 334.013,88.4446 337.5,87.5 Z"/></g>
<g><path style="opacity:0.98" fill="#337aa3" d="M 343.5,88.5 C 347.09,91.1225 347.424,94.1225 344.5,97.5C 344.632,94.4299 344.299,91.4299 343.5,88.5 Z"/></g>
<g><path style="opacity:0.612" fill="#33576e" d="M 321.5,81.5 C 320.983,84.5823 320.15,87.5823 319,90.5C 316.833,92.6667 314.667,94.8333 312.5,97C 310.055,97.9098 308.722,97.0764 308.5,94.5C 309.458,94.9528 310.292,95.6195 311,96.5C 313.333,94.1667 315.667,91.8333 318,89.5C 318.738,86.4985 319.904,83.8318 321.5,81.5 Z"/></g>
<g><path style="opacity:0.259" fill="#2b4858" d="M 265.5,102.5 C 263.097,102.448 260.764,102.781 258.5,103.5C 259.312,102.007 260.645,101.34 262.5,101.5C 263.726,101.52 264.726,101.853 265.5,102.5 Z"/></g>
<g><path style="opacity:0.655" fill="#325870" d="M 280.5,101.5 C 282.833,101.833 284.167,103.167 284.5,105.5C 282.833,104.5 281.5,103.167 280.5,101.5 Z"/></g>
<g><path style="opacity:0.02" fill="#324652" d="M 356.5,104.5 C 358.5,104.5 359.5,105.5 359.5,107.5C 358.167,106.833 357.167,105.833 356.5,104.5 Z"/></g>
<g><path style="opacity:0.678" fill="#335870" d="M 284.5,105.5 C 287.5,106.5 289.5,108.5 290.5,111.5C 288.167,109.833 286.167,107.833 284.5,105.5 Z"/></g>
<g><path style="opacity:1" fill="#2fa2e2" d="M 352.5,104.5 C 353.833,104.5 355.167,104.5 356.5,104.5C 357.167,105.833 358.167,106.833 359.5,107.5C 359.5,109.167 359.5,110.833 359.5,112.5C 359.586,113.496 359.252,114.329 358.5,115C 352.771,116.712 348.104,120.045 344.5,125C 347.371,127.703 350.038,130.536 352.5,133.5C 353.053,135.552 354.053,135.885 355.5,134.5C 356.167,133.167 357.167,132.167 358.5,131.5C 359.407,129.343 360.073,127.01 360.5,124.5C 362.764,123.781 365.097,123.448 367.5,123.5C 368.5,123.833 369.167,124.5 369.5,125.5C 369.5,127.833 369.5,130.167 369.5,132.5C 367.779,134.694 365.445,135.861 362.5,136C 360.297,138.372 357.963,140.539 355.5,142.5C 354.5,142.833 353.833,143.5 353.5,144.5C 348.167,150.5 342.5,156.167 336.5,161.5C 335.353,165.646 335.186,169.98 336,174.5C 336.717,173.956 337.217,173.289 337.5,172.5C 337.5,171.833 337.833,171.5 338.5,171.5C 348.298,164.887 355.631,156.387 360.5,146C 362.134,145.506 363.801,145.34 365.5,145.5C 366.146,147.156 366.813,148.823 367.5,150.5C 366.453,152.056 365.786,153.723 365.5,155.5C 363.302,155.12 361.635,155.787 360.5,157.5C 352.833,165.833 344.833,173.833 336.5,181.5C 335.355,185.311 335.188,189.311 336,193.5C 337.045,192.627 337.878,191.627 338.5,190.5C 340.017,190.489 341.184,189.823 342,188.5C 342.495,186.527 342.662,184.527 342.5,182.5C 342.833,181.5 343.5,180.833 344.5,180.5C 346.435,179.85 348.435,179.517 350.5,179.5C 352.5,179.5 353.5,180.5 353.5,182.5C 353.5,184.167 353.5,185.833 353.5,187.5C 353.586,188.496 353.252,189.329 352.5,190C 350.285,191.044 347.952,191.71 345.5,192C 342.667,194.833 339.833,197.667 337,200.5C 336.667,209.167 336.333,217.833 336,226.5C 335.617,227.056 335.117,227.389 334.5,227.5C 333.178,227.67 332.011,227.337 331,226.5C 330.5,204.169 330.333,181.836 330.5,159.5C 332.5,156.833 334.833,154.5 337.5,152.5C 339.382,151.779 339.715,150.779 338.5,149.5C 334.79,147.502 331.124,145.502 327.5,143.5C 327.141,135.501 330.475,133.168 337.5,136.5C 337.833,137.833 338.167,139.167 338.5,140.5C 340.768,145.84 343.768,146.507 347.5,142.5C 349.806,141.625 350.473,140.292 349.5,138.5C 344.702,134.203 340.035,129.703 335.5,125C 333.277,124.434 331.277,123.6 329.5,122.5C 326.082,117.491 327.249,114.157 333,112.5C 334.833,112.519 336.333,113.185 337.5,114.5C 338.167,114.5 338.5,114.833 338.5,115.5C 338.181,117.75 338.681,119.75 340,121.5C 340.717,120.956 341.217,120.289 341.5,119.5C 341.833,118.5 342.5,117.833 343.5,117.5C 348.232,115.919 350.399,112.585 350,107.5C 351.045,106.627 351.878,105.627 352.5,104.5 Z"/></g>
<g><path style="opacity:0.516" fill="#305f7c" d="M 265.5,102.5 C 268.407,104.315 269.741,106.981 269.5,110.5C 267.798,108.16 266.465,105.493 265.5,102.5 Z"/></g>
<g><path style="opacity:0.757" fill="#336b8c" d="M 333.5,94.5 C 333.833,94.5 334.167,94.5 334.5,94.5C 329.11,100.892 323.11,106.559 316.5,111.5C 321.833,105.5 327.5,99.8333 333.5,94.5 Z"/></g>
<g><path style="opacity:0.573" fill="#2f536a" d="M 258.5,103.5 C 257.781,105.764 257.448,108.097 257.5,110.5C 254.933,107.905 255.266,105.572 258.5,103.5 Z"/></g>
<g><path style="opacity:0.012" fill="#303a41" d="M 330.5,105.5 C 330.167,107.833 328.833,109.167 326.5,109.5C 327.5,107.833 328.833,106.5 330.5,105.5 Z"/></g>
<g><path style="opacity:0.682" fill="#335971" d="M 304.5,98.5 C 305.695,98.8656 306.361,99.699 306.5,101C 304.945,104.561 302.612,107.561 299.5,110C 298.251,110.74 297.251,110.573 296.5,109.5C 300.266,107.57 303.266,104.736 305.5,101C 304.748,100.329 304.414,99.4959 304.5,98.5 Z"/></g>
<g><path style="opacity:0.294" fill="#304856" d="M 359.5,107.5 C 362.167,109.167 362.167,110.833 359.5,112.5C 359.5,110.833 359.5,109.167 359.5,107.5 Z"/></g>
<g><path style="opacity:0.231" fill="#30434e" d="M 337.5,114.5 C 336.333,113.185 334.833,112.519 333,112.5C 327.249,114.157 326.082,117.491 329.5,122.5C 325.499,119.206 325.499,115.706 329.5,112C 331.833,111.333 334.167,111.333 336.5,112C 337.252,112.671 337.586,113.504 337.5,114.5 Z"/></g>
<g><path style="opacity:0.81" fill="#316483" d="M 257.5,111.5 C 260.01,111.927 262.343,112.593 264.5,113.5C 261.617,114.873 259.283,114.207 257.5,111.5 Z"/></g>
<g><path style="opacity:0.008" fill="#303f49" d="M 324.5,111.5 C 324.5,112.833 323.833,113.5 322.5,113.5C 322.833,112.5 323.5,111.833 324.5,111.5 Z"/></g>
<g><path style="opacity:0.044" fill="#2c3438" d="M 314.5,114.5 C 314.5,121.5 314.5,128.5 314.5,135.5C 313.5,135.167 312.833,134.5 312.5,133.5C 313.167,127.167 313.833,120.833 314.5,114.5 Z"/></g>
<g><path style="opacity:0.727" fill="#2c84b3" d="M 316.5,111.5 C 315.893,119.631 315.226,127.631 314.5,135.5C 314.5,128.5 314.5,121.5 314.5,114.5C 314.427,112.973 315.094,111.973 316.5,111.5 Z"/></g>
<g><path style="opacity:0.765" fill="#366786" d="M 352.5,104.5 C 351.878,105.627 351.045,106.627 350,107.5C 350.399,112.585 348.232,115.919 343.5,117.5C 346.608,114.545 348.441,110.878 349,106.5C 349.816,105.177 350.983,104.511 352.5,104.5 Z"/></g>
<g><path style="opacity:0.196" fill="#2b4451" d="M 322.5,113.5 C 322.539,114.756 322.039,115.756 321,116.5C 320.833,157.669 320.333,198.669 319.5,239.5C 319.333,198.165 319.5,156.832 320,115.5C 320.708,114.619 321.542,113.953 322.5,113.5 Z"/></g>
<g><path style="opacity:0.841" fill="#2f6281" d="M 263.5,128.5 C 262.542,128.047 261.708,127.381 261,126.5C 260.172,119.329 256.672,117.662 250.5,121.5C 251.957,117.951 254.623,116.784 258.5,118C 261.257,119.819 262.257,122.152 261.5,125C 262.823,125.816 263.489,126.983 263.5,128.5 Z"/></g>
<g><path style="opacity:1" fill="#2ba6e7" d="M 263.5,128.5 C 266.5,130.833 269.167,133.5 271.5,136.5C 271.738,138.404 272.738,139.738 274.5,140.5C 278.5,143.833 282.167,147.5 285.5,151.5C 285.685,153.196 286.519,154.529 288,155.5C 288.5,179.164 288.667,202.831 288.5,226.5C 288.5,227.167 288.167,227.5 287.5,227.5C 286.178,227.67 285.011,227.337 284,226.5C 284.146,216.116 283.313,206.116 281.5,196.5C 277.833,193.5 274.5,190.167 271.5,186.5C 271.167,184.167 269.833,182.833 267.5,182.5C 264.212,181.272 261.212,179.605 258.5,177.5C 257.924,173.888 258.924,170.888 261.5,168.5C 262.833,168.5 264.167,168.5 265.5,168.5C 267.68,170.807 269.014,173.473 269.5,176.5C 273.5,180.167 277.5,183.833 281.5,187.5C 281.5,187.833 281.5,188.167 281.5,188.5C 281.783,189.289 282.283,189.956 283,190.5C 283.816,185.316 283.65,180.316 282.5,175.5C 273.833,167.5 265.5,159.167 257.5,150.5C 257.027,149.094 256.027,148.427 254.5,148.5C 252.17,149.28 250.17,148.613 248.5,146.5C 248.5,144.167 248.5,141.833 248.5,139.5C 250.993,138.226 253.659,137.56 256.5,137.5C 257.751,140.132 258.751,142.799 259.5,145.5C 263.5,149.167 267.5,152.833 271.5,156.5C 274.414,161.085 278.08,165.085 282.5,168.5C 283.809,164.351 283.809,160.351 282.5,156.5C 279.167,153.833 276.167,150.833 273.5,147.5C 273.5,145.5 272.5,144.5 270.5,144.5C 267.5,141.167 264.5,137.833 261.5,134.5C 260.413,130.427 257.746,128.761 253.5,129.5C 252.508,129.672 251.842,129.338 251.5,128.5C 250.781,126.236 250.448,123.903 250.5,121.5C 256.672,117.662 260.172,119.329 261,126.5C 261.708,127.381 262.542,128.047 263.5,128.5 Z"/></g>
<g><path style="opacity:0.671" fill="#325f7c" d="M 292.5,113.5 C 293.573,114.251 293.74,115.251 293,116.5C 290.5,119 288,121.5 285.5,124C 283.537,124.844 282.204,124.344 281.5,122.5C 282.423,123.303 283.423,123.47 284.5,123C 287.777,120.234 290.443,117.067 292.5,113.5 Z"/></g>
<g><path style="opacity:0.133" fill="#2f3c43" d="M 338.5,115.5 C 339.022,117.219 340.022,118.552 341.5,119.5C 341.217,120.289 340.717,120.956 340,121.5C 338.681,119.75 338.181,117.75 338.5,115.5 Z"/></g>
<g><path style="opacity:0.322" fill="#314c5b" d="M 367.5,123.5 C 365.097,123.448 362.764,123.781 360.5,124.5C 362.746,121.716 365.08,121.383 367.5,123.5 Z"/></g>
<g><path style="opacity:0.267" fill="#294757" d="M 250.5,121.5 C 250.448,123.903 250.781,126.236 251.5,128.5C 250.007,127.688 249.34,126.355 249.5,124.5C 249.52,123.274 249.853,122.274 250.5,121.5 Z"/></g>
<g><path style="opacity:0.035" fill="#2e3d48" d="M 289.5,126.5 C 289.443,127.609 289.11,128.609 288.5,129.5C 287.285,128.221 287.618,127.221 289.5,126.5 Z"/></g>
<g><path style="opacity:0.659" fill="#31576e" d="M 307.5,123.5 C 300.67,122 297.67,124.667 298.5,131.5C 295.739,126.348 297.406,123.015 303.5,121.5C 305.171,121.668 306.504,122.335 307.5,123.5 Z"/></g>
<g><path style="opacity:0.439" fill="#314d60" d="M 307.5,123.5 C 310.207,125.283 310.873,127.617 309.5,130.5C 308.593,128.343 307.927,126.01 307.5,123.5 Z"/></g>
<g><path style="opacity:0.286" fill="#2f5368" d="M 360.5,124.5 C 360.073,127.01 359.407,129.343 358.5,131.5C 358.338,129.473 358.505,127.473 359,125.5C 359.383,124.944 359.883,124.611 360.5,124.5 Z"/></g>
<g><path style="opacity:0.831" fill="#366683" d="M 369.5,125.5 C 370.289,125.783 370.956,126.283 371.5,127C 370.167,128 370.167,129 371.5,130C 370.934,130.995 370.267,131.828 369.5,132.5C 369.5,130.167 369.5,127.833 369.5,125.5 Z"/></g>
<g><path style="opacity:0.169" fill="#2c4757" d="M 253.5,129.5 C 257.746,128.761 260.413,130.427 261.5,134.5C 259.293,131.933 256.627,130.267 253.5,129.5 Z"/></g>
<g><path style="opacity:0.275" fill="#30566d" d="M 298.5,131.5 C 300.921,132.891 303.588,133.725 306.5,134C 307.71,135.039 308.71,136.206 309.5,137.5C 306.995,135.285 303.995,134.119 300.5,134C 299.619,133.292 298.953,132.458 298.5,131.5 Z"/></g>
<g><path style="opacity:0.627" fill="#32556c" d="M 292.5,133.5 C 296.898,136.895 300.564,140.895 303.5,145.5C 303.167,145.5 302.833,145.5 302.5,145.5C 298.767,141.773 295.434,137.773 292.5,133.5 Z"/></g>
<g><path style="opacity:0.392" fill="#315971" d="M 352.5,133.5 C 353.391,134.11 354.391,134.443 355.5,134.5C 354.053,135.885 353.053,135.552 352.5,133.5 Z"/></g>
<g><path style="opacity:0.337" fill="#304c5d" d="M 337.5,136.5 C 330.475,133.168 327.141,135.501 327.5,143.5C 324.84,139.908 325.507,136.741 329.5,134C 331.5,133.333 333.5,133.333 335.5,134C 336.756,134.417 337.423,135.25 337.5,136.5 Z"/></g>
<g><path style="opacity:1" fill="#316686" d="M 256.5,137.5 C 253.659,137.56 250.993,138.226 248.5,139.5C 248.577,138.25 249.244,137.417 250.5,137C 252.712,136.211 254.712,136.378 256.5,137.5 Z"/></g>
<g><path style="opacity:0.706" fill="#305c77" d="M 271.5,136.5 C 273.262,137.262 274.262,138.596 274.5,140.5C 272.738,139.738 271.738,138.404 271.5,136.5 Z"/></g>
<g><path style="opacity:0.026" fill="#30383e" d="M 337.5,136.5 C 339.519,137.538 339.853,138.872 338.5,140.5C 338.167,139.167 337.833,137.833 337.5,136.5 Z"/></g>
<g><path style="opacity:0.408" fill="#314f61" d="M 349.5,138.5 C 350.473,140.292 349.806,141.625 347.5,142.5C 347.733,140.938 348.4,139.605 349.5,138.5 Z"/></g>
<g><path style="opacity:0.365" fill="#2d5267" d="M 256.5,137.5 C 259.501,139.509 260.501,142.176 259.5,145.5C 258.751,142.799 257.751,140.132 256.5,137.5 Z"/></g>
<g><path style="opacity:0.576" fill="#2f5a74" d="M 248.5,139.5 C 248.5,141.833 248.5,144.167 248.5,146.5C 246.574,144.373 246.574,142.04 248.5,139.5 Z"/></g>
<g><path style="opacity:0.008" fill="#2f3234" d="M 355.5,142.5 C 355.5,143.833 354.833,144.5 353.5,144.5C 353.833,143.5 354.5,142.833 355.5,142.5 Z"/></g>
<g><path style="opacity:0.498" fill="#2f4b5e" d="M 270.5,144.5 C 272.5,144.5 273.5,145.5 273.5,147.5C 272.167,146.833 271.167,145.833 270.5,144.5 Z"/></g>
<g><path style="opacity:0.752" fill="#2b82b2" d="M 302.5,145.5 C 302.833,145.5 303.167,145.5 303.5,145.5C 303.178,176.101 303.511,206.934 304.5,238C 303.934,238.995 303.267,239.828 302.5,240.5C 302.5,208.833 302.5,177.167 302.5,145.5 Z"/></g>
<g><path style="opacity:0.482" fill="#2e4f64" d="M 254.5,148.5 C 256.027,148.427 257.027,149.094 257.5,150.5C 255.973,150.573 254.973,149.906 254.5,148.5 Z"/></g>
<g><path style="opacity:0.349" fill="#304a5a" d="M 338.5,149.5 C 339.715,150.779 339.382,151.779 337.5,152.5C 337.557,151.391 337.89,150.391 338.5,149.5 Z"/></g>
<g><path style="opacity:0.904" fill="#357196" d="M 365.5,145.5 C 370.246,148.573 370.579,152.073 366.5,156C 364.655,157.128 362.655,157.628 360.5,157.5C 361.635,155.787 363.302,155.12 365.5,155.5C 365.786,153.723 366.453,152.056 367.5,150.5C 366.813,148.823 366.146,147.156 365.5,145.5 Z"/></g>
<g><path style="opacity:0.196" fill="#2c4757" d="M 271.5,156.5 C 274.797,159.296 277.964,162.296 281,165.5C 282.392,162.722 282.892,159.722 282.5,156.5C 283.809,160.351 283.809,164.351 282.5,168.5C 278.08,165.085 274.414,161.085 271.5,156.5 Z"/></g>
<g><path style="opacity:0.071" fill="#2c353a" d="M 336.5,161.5 C 336.185,165.371 336.518,169.038 337.5,172.5C 337.217,173.289 336.717,173.956 336,174.5C 335.186,169.98 335.353,165.646 336.5,161.5 Z"/></g>
<g><path style="opacity:0.757" fill="#34627f" d="M 365.5,145.5 C 363.801,145.34 362.134,145.506 360.5,146C 355.631,156.387 348.298,164.887 338.5,171.5C 344.221,165.276 350.221,159.109 356.5,153C 355.445,149.742 356.445,147.076 359.5,145C 361.712,144.211 363.712,144.378 365.5,145.5 Z"/></g>
<g><path style="opacity:0.627" fill="#2b5b77" d="M 261.5,168.5 C 258.924,170.888 257.924,173.888 258.5,177.5C 257.371,175.372 257.204,173.039 258,170.5C 258.816,169.177 259.983,168.511 261.5,168.5 Z"/></g>
<g><path style="opacity:0.486" fill="#2d4d61" d="M 265.5,168.5 C 269.523,169.88 270.857,172.546 269.5,176.5C 269.014,173.473 267.68,170.807 265.5,168.5 Z"/></g>
<g><path style="opacity:0.216" fill="#2a404d" d="M 282.5,175.5 C 283.65,180.316 283.816,185.316 283,190.5C 282.283,189.956 281.783,189.289 281.5,188.5C 282.833,188.167 282.833,187.833 281.5,187.5C 282.272,183.548 282.605,179.548 282.5,175.5 Z"/></g>
<g><path style="opacity:0.137" fill="#2e414c" d="M 350.5,179.5 C 348.435,179.517 346.435,179.85 344.5,180.5C 345.134,179.053 346.301,178.387 348,178.5C 349.07,178.528 349.903,178.861 350.5,179.5 Z"/></g>
<g><path style="opacity:0.064" fill="#293034" d="M 311.5,140.5 C 313.027,140.427 314.027,141.094 314.5,142.5C 314.5,174.833 314.5,207.167 314.5,239.5C 313.668,207.336 313.168,175.003 313,142.5C 312.283,141.956 311.783,141.289 311.5,140.5 Z"/></g>
<g><path style="opacity:0.773" fill="#2a85b5" d="M 314.5,142.5 C 315.332,174.664 315.832,206.997 316,239.5C 316.671,240.252 317.504,240.586 318.5,240.5C 316.872,241.853 315.538,241.519 314.5,239.5C 314.5,207.167 314.5,174.833 314.5,142.5 Z"/></g>
<g><path style="opacity:0.686" fill="#2f5872" d="M 267.5,182.5 C 269.833,182.833 271.167,184.167 271.5,186.5C 269.833,185.5 268.5,184.167 267.5,182.5 Z"/></g>
<g><path style="opacity:0.329" fill="#2f4a5a" d="M 353.5,182.5 C 355.922,184.048 355.922,185.714 353.5,187.5C 353.5,185.833 353.5,184.167 353.5,182.5 Z"/></g>
<g><path style="opacity:0.078" fill="#2b3337" d="M 336.5,181.5 C 335.945,185.012 336.612,188.012 338.5,190.5C 337.878,191.627 337.045,192.627 336,193.5C 335.188,189.311 335.355,185.311 336.5,181.5 Z"/></g>
<g><path style="opacity:0.675" fill="#344d5e" d="M 342.5,182.5 C 342.662,184.527 342.495,186.527 342,188.5C 341.184,189.823 340.017,190.489 338.5,190.5C 340.68,188.193 342.014,185.527 342.5,182.5 Z"/></g>
<g><path style="opacity:0.185" fill="#284251" d="M 281.5,196.5 C 283.313,206.116 284.146,216.116 284,226.5C 285.011,227.337 286.178,227.67 287.5,227.5C 286.116,228.801 284.616,228.801 283,227.5C 282.809,217.09 282.309,206.757 281.5,196.5 Z"/></g>
<g><path style="opacity:0.285" fill="#2a4e61" d="M 330.5,159.5 C 330.333,181.836 330.5,204.169 331,226.5C 332.011,227.337 333.178,227.67 334.5,227.5C 333.116,228.801 331.616,228.801 330,227.5C 329.17,204.663 329.337,181.996 330.5,159.5 Z"/></g>
<g><path style="opacity:0.138" fill="#283943" d="M 285.5,151.5 C 286.794,152.29 287.961,153.29 289,154.5C 289.83,178.67 289.663,202.67 288.5,226.5C 288.667,202.831 288.5,179.164 288,155.5C 286.519,154.529 285.685,153.196 285.5,151.5 Z"/></g>
<g><path style="opacity:0.018" fill="#2c2c26" d="M 288.5,257.5 C 284.988,256.945 281.988,257.612 279.5,259.5C 278.596,258.791 278.263,257.791 278.5,256.5C 282.042,256.187 285.375,256.521 288.5,257.5 Z"/></g>
<g><path style="opacity:0.019" fill="#32312c" d="M 390.5,257.5 C 382.097,256.866 374.097,257.533 366.5,259.5C 365.596,258.791 365.263,257.791 365.5,256.5C 374.017,256.174 382.35,256.507 390.5,257.5 Z"/></g>
<g><path style="opacity:0.499" fill="#646234" d="M 183.5,258.5 C 174.435,257.864 165.769,258.53 157.5,260.5C 156.522,260.189 155.855,259.522 155.5,258.5C 164.992,257.178 174.325,257.178 183.5,258.5 Z"/></g>
<g><path style="opacity:0.493" fill="#595731" d="M 215.5,266.5 C 214.469,264.039 213.802,261.373 213.5,258.5C 208.167,258.5 202.833,258.5 197.5,258.5C 197.414,267.409 196.414,276.075 194.5,284.5C 194.062,284.565 193.728,284.399 193.5,284C 195.443,275.575 196.11,267.075 195.5,258.5C 201.798,257.504 208.132,257.17 214.5,257.5C 215.159,260.455 215.492,263.455 215.5,266.5 Z"/></g>
<g><path style="opacity:0.631" fill="#686637" d="M 247.5,257.5 C 247.5,261.167 247.5,264.833 247.5,268.5C 247.167,268.5 246.833,268.5 246.5,268.5C 242.629,268.185 238.962,268.518 235.5,269.5C 234.957,269.44 234.624,269.107 234.5,268.5C 238.445,267.509 242.445,267.176 246.5,267.5C 246.5,264.5 246.5,261.5 246.5,258.5C 237.167,258.5 227.833,258.5 218.5,258.5C 218.5,261.833 218.5,265.167 218.5,268.5C 217.839,266.866 217.506,265.033 217.5,263C 217.404,260.625 217.904,258.459 219,256.5C 228.734,256.164 238.234,256.498 247.5,257.5 Z"/></g>
<g><path style="opacity:0.035" fill="#373729" d="M 247.5,257.5 C 248.167,258.833 248.833,260.167 249.5,261.5C 249.5,268.833 249.5,276.167 249.5,283.5C 248.833,278.5 248.167,273.5 247.5,268.5C 247.5,264.833 247.5,261.167 247.5,257.5 Z"/></g>
<g><path style="opacity:0.652" fill="#646238" d="M 311.5,262.5 C 310.566,261.432 310.232,260.099 310.5,258.5C 307.061,258.253 303.728,258.586 300.5,259.5C 300.414,258.504 300.748,257.671 301.5,257C 304.195,256.746 306.695,256.579 309,256.5C 311.016,257.955 311.849,259.955 311.5,262.5 Z"/></g>
<g><path style="opacity:0.643" fill="#5d5b36" d="M 329.5,274.5 C 329.687,269.155 330.02,263.822 330.5,258.5C 327.391,258.264 324.391,258.597 321.5,259.5C 321.461,258.244 321.961,257.244 323,256.5C 326.047,257.245 329.047,257.578 332,257.5C 331.734,263.307 330.9,268.974 329.5,274.5 Z"/></g>
<g><path style="opacity:0.505" fill="#73703c" d="M 359.5,258.5 C 352.825,258.334 346.158,258.5 339.5,259C 338.099,259.41 336.766,259.91 335.5,260.5C 335.577,259.25 336.244,258.417 337.5,258C 345.012,257.178 352.345,257.345 359.5,258.5 Z"/></g>
<g><path style="opacity:0.632" fill="#7e7b40" d="M 390.5,257.5 C 393.034,257.259 394.7,258.259 395.5,260.5C 394.527,260.013 393.527,259.513 392.5,259C 383.99,258.177 375.656,258.343 367.5,259.5C 367.167,259.5 366.833,259.5 366.5,259.5C 374.097,257.533 382.097,256.866 390.5,257.5 Z"/></g>
<g><path style="opacity:0.481" fill="#6f6c3d" d="M 409.5,257.5 C 409.5,257.833 409.5,258.167 409.5,258.5C 405.671,257.931 402.337,258.598 399.5,260.5C 398.522,260.189 397.855,259.522 397.5,258.5C 401.445,257.509 405.445,257.176 409.5,257.5 Z"/></g>
<g><path style="opacity:0.501" fill="#74723e" d="M 421.5,258.5 C 424.962,257.518 428.629,257.185 432.5,257.5C 432.672,258.492 432.338,259.158 431.5,259.5C 428.375,258.521 425.042,258.187 421.5,258.5 Z"/></g>
<g><path style="opacity:0.498" fill="#74713e" d="M 458.5,258.5 C 450.778,258.233 443.111,258.566 435.5,259.5C 435.5,259.167 435.5,258.833 435.5,258.5C 443.265,257.188 450.932,257.188 458.5,258.5 Z"/></g>
<g><path style="opacity:1" fill="#aeaa4c" d="M 275.5,258.5 C 275.833,259.5 276.5,260.167 277.5,260.5C 277.5,266.5 277.5,272.5 277.5,278.5C 274.833,278.5 272.167,278.5 269.5,278.5C 269.5,275.167 269.5,271.833 269.5,268.5C 265.154,268.334 260.821,268.501 256.5,269C 257.293,272.411 257.793,275.911 258,279.5C 258.383,280.056 258.883,280.389 259.5,280.5C 260.5,280.833 261.167,281.5 261.5,282.5C 261.738,284.404 262.738,285.738 264.5,286.5C 265.5,286.833 266.167,287.5 266.5,288.5C 266.738,290.404 267.738,291.738 269.5,292.5C 270.08,294.749 271.413,296.415 273.5,297.5C 274.5,297.833 275.167,298.5 275.5,299.5C 275.427,301.027 276.094,302.027 277.5,302.5C 278.466,304.792 279.133,307.292 279.5,310C 278.807,314.81 278.307,319.643 278,324.5C 277.28,326.056 276.113,327.056 274.5,327.5C 266.778,327.767 259.111,327.434 251.5,326.5C 250.5,326.167 249.833,325.5 249.5,324.5C 249.5,318.5 249.5,312.5 249.5,306.5C 252.167,306.5 254.833,306.5 257.5,306.5C 257.5,310.167 257.5,313.833 257.5,317.5C 261.5,317.5 265.5,317.5 269.5,317.5C 269.815,313.629 269.482,309.962 268.5,306.5C 267.5,306.167 266.833,305.5 266.5,304.5C 266.573,302.973 265.906,301.973 264.5,301.5C 263.5,301.167 262.833,300.5 262.5,299.5C 262.446,297.368 261.446,296.035 259.5,295.5C 258.5,295.167 257.833,294.5 257.5,293.5C 257.446,291.368 256.446,290.035 254.5,289.5C 252.367,287.909 250.701,285.909 249.5,283.5C 249.5,276.167 249.5,268.833 249.5,261.5C 250.833,260.833 251.833,259.833 252.5,258.5C 260.068,257.188 267.735,257.188 275.5,258.5 Z"/></g>
<g><path style="opacity:0.004" fill="#292926" d="M 275.5,258.5 C 276.833,258.5 277.5,259.167 277.5,260.5C 276.5,260.167 275.833,259.5 275.5,258.5 Z"/></g>
<g><path style="opacity:0.081" fill="#36362e" d="M 409.5,257.5 C 410.167,264.833 410.833,272.167 411.5,279.5C 411.291,280.922 410.791,282.255 410,283.5C 409.5,275.173 409.334,266.84 409.5,258.5C 409.5,258.167 409.5,257.833 409.5,257.5 Z"/></g>
<g><path style="opacity:1" fill="#ada94c" d="M 458.5,258.5 C 458.833,258.5 459.167,258.5 459.5,258.5C 461.324,264.988 461.991,271.654 461.5,278.5C 458.833,278.5 456.167,278.5 453.5,278.5C 453.813,274.958 453.479,271.625 452.5,268.5C 448.486,268.334 444.486,268.501 440.5,269C 441.044,269.717 441.711,270.217 442.5,270.5C 443.246,274.127 443.913,277.794 444.5,281.5C 445.419,284.089 447.086,286.089 449.5,287.5C 450.08,289.749 451.413,291.415 453.5,292.5C 454.419,295.089 456.086,297.089 458.5,298.5C 458.427,300.027 459.094,301.027 460.5,301.5C 461.823,304.938 462.49,308.771 462.5,313C 465.003,325.514 460.003,330.681 447.5,328.5C 443.651,328.499 439.984,328.165 436.5,327.5C 435.833,326.167 434.833,325.167 433.5,324.5C 433.5,318.5 433.5,312.5 433.5,306.5C 436.167,306.5 438.833,306.5 441.5,306.5C 441.5,310.167 441.5,313.833 441.5,317.5C 445.371,317.815 449.038,317.482 452.5,316.5C 453.01,312.187 452.343,308.187 450.5,304.5C 450.5,303.167 449.833,302.5 448.5,302.5C 447.5,301.167 446.5,299.833 445.5,298.5C 445.573,296.973 444.906,295.973 443.5,295.5C 442.5,295.167 441.833,294.5 441.5,293.5C 441.446,291.368 440.446,290.035 438.5,289.5C 436.367,287.909 434.701,285.909 433.5,283.5C 433.334,275.826 433.5,268.159 434,260.5C 434.383,259.944 434.883,259.611 435.5,259.5C 443.111,258.566 450.778,258.233 458.5,258.5 Z"/></g>
<g><path style="opacity:1" fill="#aca84b" d="M 183.5,258.5 C 185.173,259.343 186.34,260.676 187,262.5C 187.667,271.167 187.667,279.833 187,288.5C 186.215,290.286 185.049,291.786 183.5,293C 184.667,294.167 185.833,295.333 187,296.5C 187.667,305.833 187.667,315.167 187,324.5C 185.833,325.667 184.667,326.833 183.5,328C 174.84,328.5 166.173,328.666 157.5,328.5C 157.5,305.833 157.5,283.167 157.5,260.5C 165.769,258.53 174.435,257.864 183.5,258.5 Z M 169.5,287.5 C 168.833,287.5 168.167,287.5 167.5,287.5C 167.5,281.5 167.5,275.5 167.5,269.5C 170.5,269.5 173.5,269.5 176.5,269.5C 176.5,275.167 176.5,280.833 176.5,286.5C 173.941,286.198 171.607,286.532 169.5,287.5 Z M 166.5,299.5 C 169.625,298.521 172.958,298.187 176.5,298.5C 176.5,304.5 176.5,310.5 176.5,316.5C 173.5,316.5 170.5,316.5 167.5,316.5C 167.822,310.642 167.489,304.975 166.5,299.5 Z"/></g>
<g><path style="opacity:1" fill="#aeaa4c" d="M 215.5,266.5 C 216.696,272.97 217.362,279.637 217.5,286.5C 217.678,293.749 218.678,300.749 220.5,307.5C 221.69,314.067 222.357,320.734 222.5,327.5C 219.5,327.5 216.5,327.5 213.5,327.5C 213.784,325.585 213.451,323.919 212.5,322.5C 212.5,320.833 212.5,319.167 212.5,317.5C 207.652,316.186 202.652,316.186 197.5,317.5C 197.624,318.107 197.957,318.44 198.5,318.5C 199.404,319.209 199.737,320.209 199.5,321.5C 198.539,323.265 198.205,325.265 198.5,327.5C 195.287,327.81 192.287,327.477 189.5,326.5C 189.5,326.167 189.5,325.833 189.5,325.5C 191.624,315.069 192.957,304.403 193.5,293.5C 193.264,290.391 193.597,287.391 194.5,284.5C 196.414,276.075 197.414,267.409 197.5,258.5C 202.833,258.5 208.167,258.5 213.5,258.5C 213.802,261.373 214.469,264.039 215.5,266.5 Z M 206.5,276.5 C 206.866,284.385 207.866,292.051 209.5,299.5C 209.5,299.833 209.5,300.167 209.5,300.5C 209.5,302.5 209.5,304.5 209.5,306.5C 206.833,306.5 204.167,306.5 201.5,306.5C 202.987,299.273 203.987,291.94 204.5,284.5C 205.167,281.833 205.833,279.167 206.5,276.5 Z"/></g>
<g><path style="opacity:1" fill="#b3af4d" d="M 235.5,269.5 C 236.167,269.5 236.5,269.833 236.5,270.5C 236.5,289.5 236.5,308.5 236.5,327.5C 233.833,327.5 231.167,327.5 228.5,327.5C 228.5,307.833 228.5,288.167 228.5,268.5C 227.167,268.5 225.833,268.5 224.5,268.5C 222.259,268.954 220.259,268.954 218.5,268.5C 218.5,265.167 218.5,261.833 218.5,258.5C 227.833,258.5 237.167,258.5 246.5,258.5C 246.5,261.5 246.5,264.5 246.5,267.5C 242.445,267.176 238.445,267.509 234.5,268.5C 234.624,269.107 234.957,269.44 235.5,269.5 Z"/></g>
<g><path style="opacity:0.999" fill="#aeaa4c" d="M 290.5,264.5 C 291.403,267.391 291.736,270.391 291.5,273.5C 291.679,281.408 292.679,289.074 294.5,296.5C 294.337,298.857 294.503,301.19 295,303.5C 296.679,297.271 297.513,290.938 297.5,284.5C 297.5,284.167 297.5,283.833 297.5,283.5C 298.972,279.081 299.638,274.414 299.5,269.5C 299.342,266.098 299.676,262.764 300.5,259.5C 303.728,258.586 307.061,258.253 310.5,258.5C 310.232,260.099 310.566,261.432 311.5,262.5C 312.682,268.301 313.348,274.301 313.5,280.5C 313.817,287.554 314.65,294.554 316,301.5C 317.89,295.99 318.723,290.324 318.5,284.5C 318.194,281.615 318.527,278.948 319.5,276.5C 320.889,271.731 321.556,266.731 321.5,261.5C 321.5,260.833 321.5,260.167 321.5,259.5C 324.391,258.597 327.391,258.264 330.5,258.5C 330.02,263.822 329.687,269.155 329.5,274.5C 329.303,281.026 328.636,287.359 327.5,293.5C 325.398,300.55 324.398,307.883 324.5,315.5C 324.632,318.57 324.299,321.57 323.5,324.5C 322.596,325.209 322.263,326.209 322.5,327.5C 318.167,327.5 313.833,327.5 309.5,327.5C 309.624,321.931 308.957,316.598 307.5,311.5C 306.518,308.038 306.185,304.371 306.5,300.5C 306.657,299.127 306.49,297.793 306,296.5C 304.116,302.669 303.282,309.002 303.5,315.5C 303.721,318.279 303.388,320.946 302.5,323.5C 301.566,324.568 301.232,325.901 301.5,327.5C 297.167,327.5 292.833,327.5 288.5,327.5C 287.597,324.609 287.264,321.609 287.5,318.5C 287.556,313.269 286.889,308.269 285.5,303.5C 285.5,302.833 285.5,302.167 285.5,301.5C 285.802,298.941 285.468,296.607 284.5,294.5C 284.5,294.167 284.5,293.833 284.5,293.5C 284.795,291.265 284.461,289.265 283.5,287.5C 283.5,287.167 283.5,286.833 283.5,286.5C 283.844,280.902 283.178,275.568 281.5,270.5C 281.577,266.785 281.244,263.119 280.5,259.5C 283.287,258.523 286.287,258.19 289.5,258.5C 289.205,260.735 289.539,262.735 290.5,264.5 Z"/></g>
<g><path style="opacity:0.999" fill="#b0ac4d" d="M 359.5,258.5 C 359.833,258.5 360.167,258.5 360.5,258.5C 360.427,260.027 361.094,261.027 362.5,261.5C 362.5,282.5 362.5,303.5 362.5,324.5C 361.167,325.167 360.167,326.167 359.5,327.5C 351.466,327.698 343.466,327.365 335.5,326.5C 335.217,325.711 334.717,325.044 334,324.5C 333.333,303.5 333.333,282.5 334,261.5C 334.383,260.944 334.883,260.611 335.5,260.5C 336.766,259.91 338.099,259.41 339.5,259C 346.158,258.5 352.825,258.334 359.5,258.5 Z M 343.5,269.5 C 346.833,269.5 350.167,269.5 353.5,269.5C 353.5,285.167 353.5,300.833 353.5,316.5C 350.5,316.5 347.5,316.5 344.5,316.5C 344.803,300.786 344.469,285.119 343.5,269.5 Z"/></g>
<g><path style="opacity:0.655" fill="#5f5d38" d="M 360.5,258.5 C 361.906,258.973 362.573,259.973 362.5,261.5C 361.094,261.027 360.427,260.027 360.5,258.5 Z"/></g>
<g><path style="opacity:1" fill="#b1ad4d" d="M 395.5,260.5 C 396.338,260.842 396.672,261.508 396.5,262.5C 396.765,273.538 396.432,284.538 395.5,295.5C 395.5,296.167 395.167,296.5 394.5,296.5C 392.565,297.15 390.565,297.483 388.5,297.5C 388.263,298.791 388.596,299.791 389.5,300.5C 390.053,305.806 391.386,310.806 393.5,315.5C 394.434,316.568 394.768,317.901 394.5,319.5C 394.575,322.206 394.908,324.873 395.5,327.5C 392.5,327.5 389.5,327.5 386.5,327.5C 386.662,325.473 386.495,323.473 386,321.5C 385.617,320.944 385.117,320.611 384.5,320.5C 384.5,320.167 384.5,319.833 384.5,319.5C 384.946,316.99 384.28,314.99 382.5,313.5C 382.58,310.219 381.913,307.219 380.5,304.5C 380.326,302.139 379.993,299.806 379.5,297.5C 377.712,297.215 376.045,297.548 374.5,298.5C 375.243,299.182 375.909,299.849 376.5,300.5C 376.544,309.657 376.544,318.657 376.5,327.5C 373.5,327.5 370.5,327.5 367.5,327.5C 367.5,304.833 367.5,282.167 367.5,259.5C 375.656,258.343 383.99,258.177 392.5,259C 393.527,259.513 394.527,260.013 395.5,260.5 Z M 386.5,269.5 C 386.666,274.844 386.499,280.177 386,285.5C 382.835,286.792 379.668,286.792 376.5,285.5C 376.5,280.833 376.5,276.167 376.5,271.5C 379.488,269.727 382.821,269.06 386.5,269.5 Z"/></g>
<g><path style="opacity:1" fill="#aca84c" d="M 409.5,258.5 C 409.334,266.84 409.5,275.173 410,283.5C 410.791,282.255 411.291,280.922 411.5,279.5C 413.913,278.32 414.913,276.32 414.5,273.5C 415.227,271.046 416.227,268.713 417.5,266.5C 419.25,265.341 420.25,263.674 420.5,261.5C 420.557,260.391 420.89,259.391 421.5,258.5C 425.042,258.187 428.375,258.521 431.5,259.5C 430.766,260.708 430.433,262.041 430.5,263.5C 428.736,268.022 426.736,272.355 424.5,276.5C 421.793,279.247 420.127,282.58 419.5,286.5C 418.7,288.607 418.033,290.774 417.5,293C 419.367,297.9 421.367,302.733 423.5,307.5C 423.157,309.483 423.824,310.817 425.5,311.5C 427.231,315.295 429.231,318.962 431.5,322.5C 431.5,323.167 431.5,323.833 431.5,324.5C 431.414,325.496 431.748,326.329 432.5,327C 428.848,327.499 425.182,327.665 421.5,327.5C 419.229,323.291 417.229,318.958 415.5,314.5C 415.539,311.911 414.539,309.911 412.5,308.5C 411.662,308.158 411.328,307.492 411.5,306.5C 411.291,305.078 410.791,303.745 410,302.5C 409.5,310.827 409.334,319.16 409.5,327.5C 406.5,327.5 403.5,327.5 400.5,327.5C 400.831,304.994 400.497,282.66 399.5,260.5C 402.337,258.598 405.671,257.931 409.5,258.5 Z"/></g>
<g><path style="opacity:0.373" fill="#4c4a2f" d="M 252.5,258.5 C 251.833,259.833 250.833,260.833 249.5,261.5C 249.5,259.5 250.5,258.5 252.5,258.5 Z"/></g>
<g><path style="opacity:0.424" fill="#696638" d="M 288.5,257.5 C 289.693,257.97 290.36,258.97 290.5,260.5C 291.049,262.142 291.049,263.475 290.5,264.5C 289.539,262.735 289.205,260.735 289.5,258.5C 286.287,258.19 283.287,258.523 280.5,259.5C 280.167,259.5 279.833,259.5 279.5,259.5C 281.988,257.612 284.988,256.945 288.5,257.5 Z"/></g>
<g><path style="opacity:0.106" fill="#474533" d="M 432.5,257.5 C 433.391,258.11 434.391,258.443 435.5,258.5C 435.5,258.833 435.5,259.167 435.5,259.5C 434.883,259.611 434.383,259.944 434,260.5C 433.5,268.159 433.334,275.826 433.5,283.5C 432.671,276.679 432.171,269.679 432,262.5C 431.617,263.056 431.117,263.389 430.5,263.5C 430.433,262.041 430.766,260.708 431.5,259.5C 432.338,259.158 432.672,258.492 432.5,257.5 Z"/></g>
<g><path style="opacity:0.449" fill="#646338" d="M 399.5,260.5 C 400.497,282.66 400.831,304.994 400.5,327.5C 403.5,327.5 406.5,327.5 409.5,327.5C 406.375,328.479 403.042,328.813 399.5,328.5C 399.5,305.833 399.5,283.167 399.5,260.5 Z"/></g>
<g><path style="opacity:0.022" fill="#2a2a26" d="M 279.5,259.5 C 279.833,259.5 280.167,259.5 280.5,259.5C 281.244,263.119 281.577,266.785 281.5,270.5C 281.5,271.167 281.5,271.833 281.5,272.5C 280.683,270.031 280.183,267.365 280,264.5C 279.823,268.356 279.323,272.023 278.5,275.5C 278.5,271.167 278.5,266.833 278.5,262.5C 279.404,261.791 279.737,260.791 279.5,259.5 Z"/></g>
<g><path style="opacity:0.153" fill="#4b4934" d="M 420.5,261.5 C 420.25,263.674 419.25,265.341 417.5,266.5C 417.75,264.326 418.75,262.659 420.5,261.5 Z"/></g>
<g><path style="opacity:0.268" fill="#4f4e32" d="M 366.5,259.5 C 366.833,259.5 367.167,259.5 367.5,259.5C 367.5,282.167 367.5,304.833 367.5,327.5C 370.5,327.5 373.5,327.5 376.5,327.5C 373.375,328.479 370.042,328.813 366.5,328.5C 366.5,305.5 366.5,282.5 366.5,259.5 Z"/></g>
<g><path style="opacity:0.012" fill="#2c2b25" d="M 235.5,269.5 C 238.962,268.518 242.629,268.185 246.5,268.5C 243.5,269.167 240.5,269.833 237.5,270.5C 237.167,270.5 236.833,270.5 236.5,270.5C 236.5,269.833 236.167,269.5 235.5,269.5 Z"/></g>
<g><path style="opacity:0.024" fill="#2e2e2b" d="M 386.5,268.5 C 386.5,268.833 386.5,269.167 386.5,269.5C 382.821,269.06 379.488,269.727 376.5,271.5C 376.586,270.504 376.252,269.671 375.5,269C 379.152,268.501 382.818,268.335 386.5,268.5 Z"/></g>
<g><path style="opacity:0.153" fill="#434232" d="M 452.5,268.5 C 452.5,268.833 452.5,269.167 452.5,269.5C 448.958,269.187 445.625,269.521 442.5,270.5C 441.711,270.217 441.044,269.717 440.5,269C 444.486,268.501 448.486,268.334 452.5,268.5 Z"/></g>
<g><path style="opacity:0.052" fill="#343424" d="M 169.5,287.5 C 171.607,286.532 173.941,286.198 176.5,286.5C 176.5,280.833 176.5,275.167 176.5,269.5C 173.5,269.5 170.5,269.5 167.5,269.5C 167.5,275.5 167.5,281.5 167.5,287.5C 166.795,281.631 166.129,275.631 165.5,269.5C 169.445,268.509 173.445,268.176 177.5,268.5C 177.5,274.833 177.5,281.167 177.5,287.5C 174.833,287.5 172.167,287.5 169.5,287.5 Z M 169.5,287.5 C 168.833,287.5 168.167,287.5 167.5,287.5C 167.5,281.5 167.5,275.5 167.5,269.5C 170.5,269.5 173.5,269.5 176.5,269.5C 176.5,275.167 176.5,280.833 176.5,286.5C 173.941,286.198 171.607,286.532 169.5,287.5 Z"/></g>
<g><path style="opacity:0.405" fill="#615f35" d="M 277.5,260.5 C 278.338,260.842 278.672,261.508 278.5,262.5C 278.5,266.833 278.5,271.167 278.5,275.5C 278.5,276.833 278.5,278.167 278.5,279.5C 275.007,279.998 271.674,279.998 268.5,279.5C 268.5,276.167 268.5,272.833 268.5,269.5C 265.167,269.5 261.833,269.5 258.5,269.5C 258.323,273.234 258.656,276.901 259.5,280.5C 258.883,280.389 258.383,280.056 258,279.5C 257.793,275.911 257.293,272.411 256.5,269C 260.821,268.501 265.154,268.334 269.5,268.5C 269.5,271.833 269.5,275.167 269.5,278.5C 272.167,278.5 274.833,278.5 277.5,278.5C 277.5,272.5 277.5,266.5 277.5,260.5 Z"/></g>
<g><path style="opacity:0.415" fill="#585634" d="M 341.5,269.5 C 345.634,268.515 349.968,268.182 354.5,268.5C 354.5,284.833 354.5,301.167 354.5,317.5C 350.5,317.5 346.5,317.5 342.5,317.5C 342.83,301.325 342.496,285.325 341.5,269.5 Z M 343.5,269.5 C 344.469,285.119 344.803,300.786 344.5,316.5C 347.5,316.5 350.5,316.5 353.5,316.5C 353.5,300.833 353.5,285.167 353.5,269.5C 350.167,269.5 346.833,269.5 343.5,269.5 Z"/></g>
<g><path style="opacity:0.751" fill="#6c6a39" d="M 236.5,270.5 C 236.833,270.5 237.167,270.5 237.5,270.5C 238.799,289.356 238.799,308.356 237.5,327.5C 237.167,327.5 236.833,327.5 236.5,327.5C 236.5,308.5 236.5,289.5 236.5,270.5 Z"/></g>
<g><path style="opacity:0.31" fill="#555432" d="M 281.5,270.5 C 283.178,275.568 283.844,280.902 283.5,286.5C 282.356,282.036 281.69,277.37 281.5,272.5C 281.5,271.833 281.5,271.167 281.5,270.5 Z"/></g>
<g><path style="opacity:0.541" fill="#626037" d="M 321.5,261.5 C 321.556,266.731 320.889,271.731 319.5,276.5C 319.444,271.269 320.111,266.269 321.5,261.5 Z"/></g>
<g><path style="opacity:0.025" fill="#302f2b" d="M 396.5,262.5 C 397.659,272.658 397.825,282.992 397,293.5C 396.722,294.416 396.222,295.082 395.5,295.5C 396.432,284.538 396.765,273.538 396.5,262.5 Z"/></g>
<g><path style="opacity:0.982" fill="#73703e" d="M 414.5,273.5 C 414.913,276.32 413.913,278.32 411.5,279.5C 411.992,277.181 412.992,275.181 414.5,273.5 Z"/></g>
<g><path style="opacity:0.2" fill="#3e3d28" d="M 206.5,276.5 C 205.833,279.167 205.167,281.833 204.5,284.5C 204.34,279.434 204.84,274.434 206,269.5C 206.497,271.81 206.663,274.143 206.5,276.5 Z"/></g>
<g><path style="opacity:0.465" fill="#68663c" d="M 459.5,258.5 C 461.61,259.453 462.777,261.119 463,263.5C 463.529,268.854 463.362,274.187 462.5,279.5C 459.007,279.998 455.674,279.998 452.5,279.5C 452.5,276.167 452.5,272.833 452.5,269.5C 452.5,269.167 452.5,268.833 452.5,268.5C 453.479,271.625 453.813,274.958 453.5,278.5C 456.167,278.5 458.833,278.5 461.5,278.5C 461.991,271.654 461.324,264.988 459.5,258.5 Z"/></g>
<g><path style="opacity:0.776" fill="#6b6939" d="M 291.5,273.5 C 293.14,280.611 294.14,287.944 294.5,295.5C 294.5,295.833 294.5,296.167 294.5,296.5C 292.679,289.074 291.679,281.408 291.5,273.5 Z"/></g>
<g><path style="opacity:0.435" fill="#575533" d="M 299.5,269.5 C 299.638,274.414 298.972,279.081 297.5,283.5C 297.362,278.586 298.028,273.919 299.5,269.5 Z"/></g>
<g><path style="opacity:0.224" fill="#494833" d="M 424.5,276.5 C 423.341,280.151 421.674,283.485 419.5,286.5C 420.127,282.58 421.793,279.247 424.5,276.5 Z"/></g>
<g><path style="opacity:0.698" fill="#5d5b34" d="M 261.5,282.5 C 263.262,283.262 264.262,284.596 264.5,286.5C 262.738,285.738 261.738,284.404 261.5,282.5 Z"/></g>
<g><path style="opacity:0.061" fill="#434130" d="M 386.5,268.5 C 387.49,274.645 387.823,280.978 387.5,287.5C 383.351,288.08 379.684,287.414 376.5,285.5C 379.668,286.792 382.835,286.792 386,285.5C 386.499,280.177 386.666,274.844 386.5,269.5C 386.5,269.167 386.5,268.833 386.5,268.5 Z"/></g>
<g><path style="opacity:0.282" fill="#565437" d="M 444.5,281.5 C 446.914,282.911 448.581,284.911 449.5,287.5C 447.086,286.089 445.419,284.089 444.5,281.5 Z"/></g>
<g><path style="opacity:0.196" fill="#4d4b2d" d="M 206.5,276.5 C 208.695,283.876 209.695,291.543 209.5,299.5C 207.866,292.051 206.866,284.385 206.5,276.5 Z"/></g>
<g><path style="opacity:0.741" fill="#5f5d39" d="M 449.5,287.5 C 451.587,288.585 452.92,290.251 453.5,292.5C 451.413,291.415 450.08,289.749 449.5,287.5 Z"/></g>
<g><path style="opacity:0.631" fill="#585632" d="M 266.5,288.5 C 268.262,289.262 269.262,290.596 269.5,292.5C 267.738,291.738 266.738,290.404 266.5,288.5 Z"/></g>
<g><path style="opacity:0.361" fill="#525131" d="M 283.5,287.5 C 284.461,289.265 284.795,291.265 284.5,293.5C 283.776,291.782 283.109,289.948 282.5,288C 282.728,287.601 283.062,287.435 283.5,287.5 Z"/></g>
<g><path style="opacity:0.467" fill="#514f31" d="M 254.5,289.5 C 256.446,290.035 257.446,291.368 257.5,293.5C 256.026,292.564 255.026,291.23 254.5,289.5 Z"/></g>
<g><path style="opacity:0.482" fill="#5d5b39" d="M 438.5,289.5 C 440.446,290.035 441.446,291.368 441.5,293.5C 440.026,292.564 439.026,291.23 438.5,289.5 Z"/></g>
<g><path style="opacity:0.745" fill="#5d5c33" d="M 217.5,286.5 C 219.135,293.276 220.135,300.276 220.5,307.5C 218.678,300.749 217.678,293.749 217.5,286.5 Z"/></g>
<g><path style="opacity:0.859" fill="#656336" d="M 269.5,292.5 C 271.587,293.585 272.92,295.251 273.5,297.5C 271.413,296.415 270.08,294.749 269.5,292.5 Z"/></g>
<g><path style="opacity:0.51" fill="#525032" d="M 313.5,280.5 C 314.644,284.972 315.477,289.638 316,294.5C 316.885,291.048 317.718,287.714 318.5,284.5C 318.723,290.324 317.89,295.99 316,301.5C 314.65,294.554 313.817,287.554 313.5,280.5 Z"/></g>
<g><path style="opacity:0.497" fill="#585635" d="M 362.5,261.5 C 363.222,261.918 363.722,262.584 364,263.5C 364.667,283.167 364.667,302.833 364,322.5C 363.722,323.416 363.222,324.082 362.5,324.5C 362.5,303.5 362.5,282.5 362.5,261.5 Z"/></g>
<g><path style="opacity:0.424" fill="#555332" d="M 284.5,294.5 C 285.468,296.607 285.802,298.941 285.5,301.5C 284.784,299.444 284.117,297.277 283.5,295C 283.728,294.601 284.062,294.435 284.5,294.5 Z"/></g>
<g><path style="opacity:0.004" fill="#3d3c2f" d="M 443.5,295.5 C 444.906,295.973 445.573,296.973 445.5,298.5C 444.094,298.027 443.427,297.027 443.5,295.5 Z"/></g>
<g><path style="opacity:0.663" fill="#7d7b3c" d="M 177.5,298.5 C 177.167,298.5 176.833,298.5 176.5,298.5C 172.958,298.187 169.625,298.521 166.5,299.5C 165.624,299.631 164.957,299.298 164.5,298.5C 168.984,297.189 173.317,297.189 177.5,298.5 Z"/></g>
<g><path style="opacity:0.518" fill="#585633" d="M 259.5,295.5 C 261.446,296.035 262.446,297.368 262.5,299.5C 261.026,298.564 260.026,297.23 259.5,295.5 Z"/></g>
<g><path style="opacity:0.46" fill="#504e33" d="M 380.5,304.5 C 379.207,303.158 378.374,301.491 378,299.5C 377.617,300.056 377.117,300.389 376.5,300.5C 375.909,299.849 375.243,299.182 374.5,298.5C 376.045,297.548 377.712,297.215 379.5,297.5C 379.993,299.806 380.326,302.139 380.5,304.5 Z"/></g>
<g><path style="opacity:0.004" fill="#424130" d="M 394.5,296.5 C 392.673,297.691 391.007,299.025 389.5,300.5C 388.596,299.791 388.263,298.791 388.5,297.5C 390.565,297.483 392.565,297.15 394.5,296.5 Z"/></g>
<g><path style="opacity:0.286" fill="#555337" d="M 453.5,292.5 C 455.914,293.911 457.581,295.911 458.5,298.5C 456.086,297.089 454.419,295.089 453.5,292.5 Z"/></g>
<g><path style="opacity:0.122" fill="#45442d" d="M 297.5,284.5 C 297.513,290.938 296.679,297.271 295,303.5C 294.503,301.19 294.337,298.857 294.5,296.5C 294.5,296.167 294.5,295.833 294.5,295.5C 295.775,291.898 296.775,288.231 297.5,284.5 Z"/></g>
<g><path style="opacity:0.698" fill="#69673b" d="M 458.5,298.5 C 459.906,298.973 460.573,299.973 460.5,301.5C 459.094,301.027 458.427,300.027 458.5,298.5 Z"/></g>
<g><path style="opacity:0.337" fill="#444228" d="M 176.5,298.5 C 176.833,298.5 177.167,298.5 177.5,298.5C 177.5,304.833 177.5,311.167 177.5,317.5C 173.833,317.5 170.167,317.5 166.5,317.5C 166.5,311.5 166.5,305.5 166.5,299.5C 167.489,304.975 167.822,310.642 167.5,316.5C 170.5,316.5 173.5,316.5 176.5,316.5C 176.5,310.5 176.5,304.5 176.5,298.5 Z"/></g>
<g><path style="opacity:0.651" fill="#5a5830" d="M 193.5,293.5 C 192.957,304.403 191.624,315.069 189.5,325.5C 189.897,314.58 191.23,303.913 193.5,293.5 Z"/></g>
<g><path style="opacity:0.631" fill="#5c5933" d="M 275.5,299.5 C 276.906,299.973 277.573,300.973 277.5,302.5C 276.094,302.027 275.427,301.027 275.5,299.5 Z"/></g>
<g><path style="opacity:0.31" fill="#515031" d="M 306.5,300.5 C 305.581,305.514 304.581,310.514 303.5,315.5C 303.282,309.002 304.116,302.669 306,296.5C 306.49,297.793 306.657,299.127 306.5,300.5 Z"/></g>
<g><path style="opacity:0.376" fill="#545232" d="M 327.5,293.5 C 327.14,301.056 326.14,308.389 324.5,315.5C 324.398,307.883 325.398,300.55 327.5,293.5 Z"/></g>
<g><path style="opacity:0.353" fill="#52512f" d="M 224.5,268.5 C 225.833,268.5 227.167,268.5 228.5,268.5C 228.5,288.167 228.5,307.833 228.5,327.5C 231.167,327.5 233.833,327.5 236.5,327.5C 236.833,327.5 237.167,327.5 237.5,327.5C 234.375,328.479 231.042,328.813 227.5,328.5C 227.5,308.833 227.5,289.167 227.5,269.5C 226.209,269.737 225.209,269.404 224.5,268.5 Z"/></g>
<g><path style="opacity:0.008" fill="#373628" d="M 264.5,301.5 C 265.906,301.973 266.573,302.973 266.5,304.5C 265.094,304.027 264.427,303.027 264.5,301.5 Z"/></g>
<g><path style="opacity:0.455" fill="#4d4c34" d="M 448.5,302.5 C 449.833,302.5 450.5,303.167 450.5,304.5C 449.5,304.167 448.833,303.5 448.5,302.5 Z"/></g>
<g><path style="opacity:0.725" fill="#555335" d="M 389.5,300.5 C 391.591,305.191 392.924,310.191 393.5,315.5C 391.386,310.806 390.053,305.806 389.5,300.5 Z"/></g>
<g><path style="opacity:0.67" fill="#77753b" d="M 209.5,300.5 C 210.468,302.607 210.802,304.941 210.5,307.5C 207.287,307.81 204.287,307.477 201.5,306.5C 204.167,306.5 206.833,306.5 209.5,306.5C 209.5,304.5 209.5,302.5 209.5,300.5 Z"/></g>
<g><path style="opacity:0.325" fill="#545230" d="M 268.5,306.5 C 269.482,309.962 269.815,313.629 269.5,317.5C 265.5,317.5 261.5,317.5 257.5,317.5C 257.5,313.833 257.5,310.167 257.5,306.5C 254.833,306.5 252.167,306.5 249.5,306.5C 249.5,312.5 249.5,318.5 249.5,324.5C 248.51,318.355 248.177,312.022 248.5,305.5C 251.833,305.5 255.167,305.5 258.5,305.5C 259.087,309.263 259.087,312.929 258.5,316.5C 261.833,316.5 265.167,316.5 268.5,316.5C 268.5,313.167 268.5,309.833 268.5,306.5 Z"/></g>
<g><path style="opacity:0.055" fill="#43412f" d="M 380.5,304.5 C 381.913,307.219 382.58,310.219 382.5,313.5C 381.087,310.781 380.42,307.781 380.5,304.5 Z"/></g>
<g><path style="opacity:0.402" fill="#575535" d="M 452.5,316.5 C 449.038,317.482 445.371,317.815 441.5,317.5C 441.5,313.833 441.5,310.167 441.5,306.5C 438.833,306.5 436.167,306.5 433.5,306.5C 433.5,312.5 433.5,318.5 433.5,324.5C 433.167,324.5 432.833,324.5 432.5,324.5C 432.672,323.508 432.338,322.842 431.5,322.5C 432.452,316.925 432.786,311.259 432.5,305.5C 442.654,302.817 445.988,306.317 442.5,316C 445.817,316.498 449.15,316.665 452.5,316.5 Z"/></g>
<g><path style="opacity:0.2" fill="#464531" d="M 412.5,308.5 C 414.539,309.911 415.539,311.911 415.5,314.5C 413.992,312.819 412.992,310.819 412.5,308.5 Z"/></g>
<g><path style="opacity:0.914" fill="#69663b" d="M 423.5,307.5 C 424.674,308.514 425.34,309.847 425.5,311.5C 423.824,310.817 423.157,309.483 423.5,307.5 Z"/></g>
<g><path style="opacity:0.271" fill="#46452d" d="M 285.5,303.5 C 286.889,308.269 287.556,313.269 287.5,318.5C 285.969,313.75 285.302,308.75 285.5,303.5 Z"/></g>
<g><path style="opacity:0.663" fill="#686639" d="M 382.5,313.5 C 384.28,314.99 384.946,316.99 384.5,319.5C 383.262,317.786 382.595,315.786 382.5,313.5 Z"/></g>
<g><path style="opacity:0.687" fill="#898640" d="M 212.5,317.5 C 207.637,317.181 202.97,317.514 198.5,318.5C 197.957,318.44 197.624,318.107 197.5,317.5C 202.652,316.186 207.652,316.186 212.5,317.5 Z"/></g>
<g><path style="opacity:0.076" fill="#32312b" d="M 411.5,306.5 C 410.833,313.5 410.167,320.5 409.5,327.5C 409.334,319.16 409.5,310.827 410,302.5C 410.791,303.745 411.291,305.078 411.5,306.5 Z"/></g>
<g><path style="opacity:0.036" fill="#2b2b21" d="M 198.5,318.5 C 202.97,317.514 207.637,317.181 212.5,317.5C 212.5,319.167 212.5,320.833 212.5,322.5C 212.5,323.167 212.5,323.833 212.5,324.5C 211.539,322.735 211.205,320.735 211.5,318.5C 207.833,318.5 204.167,318.5 200.5,318.5C 200.784,320.415 200.451,322.081 199.5,323.5C 199.5,322.833 199.5,322.167 199.5,321.5C 199.737,320.209 199.404,319.209 198.5,318.5 Z"/></g>
<g><path style="opacity:0.004" fill="#3e3d2b" d="M 307.5,311.5 C 308.957,316.598 309.624,321.931 309.5,327.5C 308.043,322.402 307.376,317.069 307.5,311.5 Z"/></g>
<g><path style="opacity:0.835" fill="#6c6a3b" d="M 384.5,320.5 C 385.117,320.611 385.617,320.944 386,321.5C 386.495,323.473 386.662,325.473 386.5,327.5C 385.388,325.401 384.721,323.067 384.5,320.5 Z"/></g>
<g><path style="opacity:0.02" fill="#3d3c2c" d="M 362.5,324.5 C 362.5,326.5 361.5,327.5 359.5,327.5C 360.167,326.167 361.167,325.167 362.5,324.5 Z"/></g>
<g><path style="opacity:0.247" fill="#4c4b2b" d="M 199.5,321.5 C 199.5,322.167 199.5,322.833 199.5,323.5C 199.5,325.167 199.5,326.833 199.5,328.5C 195.774,328.823 192.107,328.489 188.5,327.5C 188.624,326.893 188.957,326.56 189.5,326.5C 192.287,327.477 195.287,327.81 198.5,327.5C 198.205,325.265 198.539,323.265 199.5,321.5 Z"/></g>
<g><path style="opacity:0.258" fill="#504f2d" d="M 212.5,322.5 C 213.451,323.919 213.784,325.585 213.5,327.5C 216.5,327.5 219.5,327.5 222.5,327.5C 219.375,328.479 216.042,328.813 212.5,328.5C 212.5,327.167 212.5,325.833 212.5,324.5C 212.5,323.833 212.5,323.167 212.5,322.5 Z"/></g>
<g><path style="opacity:0.264" fill="#49482c" d="M 251.5,326.5 C 259.111,327.434 266.778,327.767 274.5,327.5C 267.345,328.655 260.012,328.822 252.5,328C 251.944,327.617 251.611,327.117 251.5,326.5 Z"/></g>
<g><path style="opacity:0.178" fill="#47462c" d="M 302.5,323.5 C 302.5,325.167 302.5,326.833 302.5,328.5C 297.637,328.819 292.97,328.486 288.5,327.5C 292.833,327.5 297.167,327.5 301.5,327.5C 301.232,325.901 301.566,324.568 302.5,323.5 Z"/></g>
<g><path style="opacity:0.181" fill="#47462d" d="M 323.5,324.5 C 323.5,325.833 323.5,327.167 323.5,328.5C 318.637,328.819 313.97,328.486 309.5,327.5C 313.833,327.5 318.167,327.5 322.5,327.5C 322.263,326.209 322.596,325.209 323.5,324.5 Z"/></g>
<g><path style="opacity:0.277" fill="#504e31" d="M 335.5,326.5 C 343.466,327.365 351.466,327.698 359.5,327.5C 352.345,328.655 345.012,328.822 337.5,328C 336.584,327.722 335.918,327.222 335.5,326.5 Z"/></g>
<g><path style="opacity:0.189" fill="#4c4b31" d="M 394.5,319.5 C 396.035,321.939 396.868,324.606 397,327.5C 393.399,328.82 389.899,328.82 386.5,327.5C 389.5,327.5 392.5,327.5 395.5,327.5C 394.908,324.873 394.575,322.206 394.5,319.5 Z"/></g>
<g><path style="opacity:0.268" fill="#4a4931" d="M 431.5,324.5 C 431.833,324.5 432.167,324.5 432.5,324.5C 432.833,325.833 433.167,325.833 433.5,324.5C 434.833,325.167 435.833,326.167 436.5,327.5C 431.654,328.449 426.654,328.449 421.5,327.5C 425.182,327.665 428.848,327.499 432.5,327C 431.748,326.329 431.414,325.496 431.5,324.5 Z"/></g>
</svg>
